0
SECTION
2
HEADER
9
$INSUNITS
70
4
0
ENDSEC
0
SECTION
2
TABLES
0
TABLE
2
LTYPE
0
LTYPE
72
65
70
64
2
CONTINUOUS
3
______
73
0
40
0
0
ENDTAB
0
TABLE
2
LAYER
0
ENDTAB
0
ENDSEC
0
SECTION
2
ENTITIES
0
LINE
8
0
10
-12.75
20
-15
11
75.25
21
-15
0
LINE
8
0
10
-14.75
20
-13
11
-14.75
21
115
0
LINE
8
0
10
-12.75
20
117
11
64.25
21
117
0
LINE
8
0
10
95.75
20
8.150439
11
95.75
21
21
0
LINE
8
0
10
82.75
20
129
11
68.25
21
129
0
LINE
8
0
10
66.25
20
127
11
66.25
21
119
0
LINE
8
0
10
97.75
20
23
11
98.2985022
21
23
0
LINE
8
0
10
114.25
20
131
11
114.25
21
134
0
LINE
8
0
10
112.25
20
136
11
86.75
21
136
0
LINE
8
0
10
84.75
20
134
11
84.75
21
131
0
LINE
8
0
10
132.75
20
127
11
132.75
21
129
0
LINE
8
0
10
132.75
20
129
11
116.25
21
129
0
LINE
8
0
10
149.2699427
20
14
11
151.25
21
14
0
LINE
8
0
10
151.25
20
14
11
151.25
21
125
0
LINE
8
0
10
149.25
20
127
11
132.75
21
127
0
LINE
8
0
10
77.25
20
-13
11
77.25
21
-5
0
LINE
8
0
10
79.25
20
-3
11
94.9635836
21
-3
0
LINE
8
0
10
95.6476238
20
-3.1206148
11
117.9571246
21
-11.2406089
0
LINE
8
0
10
120.52055
20
-10.0452639
11
120.6669444
21
-9.6430487
0
LINE
8
0
10
100.1778874
20
20.3159598
11
95.75
21
8.150439
0
LINE
8
0
10
123.2303698
20
-8.4477037
11
143.0697223
21
-15.6686374
0
LINE
8
0
10
145.6331477
20
-14.4732924
11
154.5256714
21
9.9587158
0
LINE
8
0
10
153.3303264
20
12.5221412
11
149.2699427
21
14
0
ARC
8
0
10
75.25
20
-13
40
2
50
270
51
0
0
ARC
8
0
10
79.25
20
-5
40
2
50
90
51
180
0
ARC
8
0
10
94.9635836
20
-5
40
2
50
70.0000019
51
90
0
ARC
8
0
10
118.6411648
20
-9.3612237
40
2
50
250.0000019
51
340.0000019
0
ARC
8
0
10
122.5463296
20
-10.3270889
40
2
50
70.0000019
51
160.0000019
0
ARC
8
0
10
143.7537625
20
-13.7892522
40
2
50
250.0000019
51
340.0000019
0
ARC
8
0
10
152.6462862
20
10.642756
40
2
50
340.0000019
51
70.0000019
0
ARC
8
0
10
149.25
20
125
40
2
50
0
51
90
0
ARC
8
0
10
116.25
20
131
40
2
50
180
51
270
0
ARC
8
0
10
112.25
20
134
40
2
50
0
51
90
0
ARC
8
0
10
86.75
20
134
40
2
50
90
51
180
0
ARC
8
0
10
82.75
20
131
40
2
50
270
51
0
0
ARC
8
0
10
68.25
20
127
40
2
50
90
51
180
0
ARC
8
0
10
64.25
20
119
40
2
50
270
51
0
0
ARC
8
0
10
-12.75
20
115
40
2
50
90
51
180
0
ARC
8
0
10
-12.75
20
-13
40
2
50
180
51
270
0
ARC
8
0
10
97.75
20
21
40
2
50
90
51
180
0
ARC
8
0
10
98.2985022
20
21
40
2
50
340.0000019
51
90
0
LINE
8
0
10
-7.1
20
-7.1
11
7.1
21
-7.1
0
LINE
8
0
10
7.1
20
-7.1
11
7.1
21
7.1
0
LINE
8
0
10
7.1
20
7.1
11
-7.1
21
7.1
0
LINE
8
0
10
-7.1
20
7.1
11
-7.1
21
-7.1
0
LINE
8
0
10
-7.1
20
11.9
11
7.1
21
11.9
0
LINE
8
0
10
7.1
20
11.9
11
7.1
21
26.1
0
LINE
8
0
10
7.1
20
26.1
11
-7.1
21
26.1
0
LINE
8
0
10
-7.1
20
26.1
11
-7.1
21
11.9
0
LINE
8
0
10
-7.1
20
30.9
11
7.1
21
30.9
0
LINE
8
0
10
7.1
20
30.9
11
7.1
21
45.1
0
LINE
8
0
10
7.1
20
45.1
11
-7.1
21
45.1
0
LINE
8
0
10
-7.1
20
45.1
11
-7.1
21
30.9
0
LINE
8
0
10
-7.1
20
49.9
11
7.1
21
49.9
0
LINE
8
0
10
7.1
20
49.9
11
7.1
21
64.1
0
LINE
8
0
10
7.1
20
64.1
11
-7.1
21
64.1
0
LINE
8
0
10
-7.1
20
64.1
11
-7.1
21
49.9
0
LINE
8
0
10
-7.1
20
68.9
11
7.1
21
68.9
0
LINE
8
0
10
7.1
20
68.9
11
7.1
21
83.1
0
LINE
8
0
10
7.1
20
83.1
11
-7.1
21
83.1
0
LINE
8
0
10
-7.1
20
83.1
11
-7.1
21
68.9
0
LINE
8
0
10
-7.1
20
94.9
11
7.1
21
94.9
0
LINE
8
0
10
7.1
20
94.9
11
7.1
21
109.1
0
LINE
8
0
10
7.1
20
109.1
11
-7.1
21
109.1
0
LINE
8
0
10
-7.1
20
109.1
11
-7.1
21
94.9
0
LINE
8
0
10
11.4
20
-7.1
11
25.6
21
-7.1
0
LINE
8
0
10
25.6
20
-7.1
11
25.6
21
7.1
0
LINE
8
0
10
25.6
20
7.1
11
11.4
21
7.1
0
LINE
8
0
10
11.4
20
7.1
11
11.4
21
-7.1
0
LINE
8
0
10
11.4
20
11.9
11
25.6
21
11.9
0
LINE
8
0
10
25.6
20
11.9
11
25.6
21
26.1
0
LINE
8
0
10
25.6
20
26.1
11
11.4
21
26.1
0
LINE
8
0
10
11.4
20
26.1
11
11.4
21
11.9
0
LINE
8
0
10
11.4
20
30.9
11
25.6
21
30.9
0
LINE
8
0
10
25.6
20
30.9
11
25.6
21
45.1
0
LINE
8
0
10
25.6
20
45.1
11
11.4
21
45.1
0
LINE
8
0
10
11.4
20
45.1
11
11.4
21
30.9
0
LINE
8
0
10
11.4
20
49.9
11
25.6
21
49.9
0
LINE
8
0
10
25.6
20
49.9
11
25.6
21
64.1
0
LINE
8
0
10
25.6
20
64.1
11
11.4
21
64.1
0
LINE
8
0
10
11.4
20
64.1
11
11.4
21
49.9
0
LINE
8
0
10
11.4
20
68.9
11
25.6
21
68.9
0
LINE
8
0
10
25.6
20
68.9
11
25.6
21
83.1
0
LINE
8
0
10
25.6
20
83.1
11
11.4
21
83.1
0
LINE
8
0
10
11.4
20
83.1
11
11.4
21
68.9
0
LINE
8
0
10
11.4
20
94.9
11
25.6
21
94.9
0
LINE
8
0
10
25.6
20
94.9
11
25.6
21
109.1
0
LINE
8
0
10
25.6
20
109.1
11
11.4
21
109.1
0
LINE
8
0
10
11.4
20
109.1
11
11.4
21
94.9
0
LINE
8
0
10
36.9
20
11.9
11
51.1
21
11.9
0
LINE
8
0
10
51.1
20
11.9
11
51.1
21
26.1
0
LINE
8
0
10
51.1
20
26.1
11
36.9
21
26.1
0
LINE
8
0
10
36.9
20
26.1
11
36.9
21
11.9
0
LINE
8
0
10
36.9
20
30.9
11
51.1
21
30.9
0
LINE
8
0
10
51.1
20
30.9
11
51.1
21
45.1
0
LINE
8
0
10
51.1
20
45.1
11
36.9
21
45.1
0
LINE
8
0
10
36.9
20
45.1
11
36.9
21
30.9
0
LINE
8
0
10
36.9
20
49.9
11
51.1
21
49.9
0
LINE
8
0
10
51.1
20
49.9
11
51.1
21
64.1
0
LINE
8
0
10
51.1
20
64.1
11
36.9
21
64.1
0
LINE
8
0
10
36.9
20
64.1
11
36.9
21
49.9
0
LINE
8
0
10
36.9
20
68.9
11
51.1
21
68.9
0
LINE
8
0
10
51.1
20
68.9
11
51.1
21
83.1
0
LINE
8
0
10
51.1
20
83.1
11
36.9
21
83.1
0
LINE
8
0
10
36.9
20
83.1
11
36.9
21
68.9
0
LINE
8
0
10
36.9
20
94.9
11
51.1
21
94.9
0
LINE
8
0
10
51.1
20
94.9
11
51.1
21
109.1
0
LINE
8
0
10
51.1
20
109.1
11
36.9
21
109.1
0
LINE
8
0
10
36.9
20
109.1
11
36.9
21
94.9
0
LINE
8
0
10
55.4
20
11.9
11
69.6
21
11.9
0
LINE
8
0
10
69.6
20
11.9
11
69.6
21
26.1
0
LINE
8
0
10
69.6
20
26.1
11
55.4
21
26.1
0
LINE
8
0
10
55.4
20
26.1
11
55.4
21
11.9
0
LINE
8
0
10
55.4
20
30.9
11
69.6
21
30.9
0
LINE
8
0
10
69.6
20
30.9
11
69.6
21
45.1
0
LINE
8
0
10
69.6
20
45.1
11
55.4
21
45.1
0
LINE
8
0
10
55.4
20
45.1
11
55.4
21
30.9
0
LINE
8
0
10
55.4
20
49.9
11
69.6
21
49.9
0
LINE
8
0
10
69.6
20
49.9
11
69.6
21
64.1
0
LINE
8
0
10
69.6
20
64.1
11
55.4
21
64.1
0
LINE
8
0
10
55.4
20
64.1
11
55.4
21
49.9
0
LINE
8
0
10
55.4
20
68.9
11
69.6
21
68.9
0
LINE
8
0
10
69.6
20
68.9
11
69.6
21
83.1
0
LINE
8
0
10
69.6
20
83.1
11
55.4
21
83.1
0
LINE
8
0
10
55.4
20
83.1
11
55.4
21
68.9
0
LINE
8
0
10
55.4
20
94.9
11
69.6
21
94.9
0
LINE
8
0
10
69.6
20
94.9
11
69.6
21
109.1
0
LINE
8
0
10
69.6
20
109.1
11
55.4
21
109.1
0
LINE
8
0
10
55.4
20
109.1
11
55.4
21
94.9
0
LINE
8
0
10
73.9
20
23.9
11
88.1
21
23.9
0
LINE
8
0
10
88.1
20
23.9
11
88.1
21
38.1
0
LINE
8
0
10
88.1
20
38.1
11
73.9
21
38.1
0
LINE
8
0
10
73.9
20
38.1
11
73.9
21
23.9
0
LINE
8
0
10
73.9
20
42.9
11
88.1
21
42.9
0
LINE
8
0
10
88.1
20
42.9
11
88.1
21
57.1
0
LINE
8
0
10
88.1
20
57.1
11
73.9
21
57.1
0
LINE
8
0
10
73.9
20
57.1
11
73.9
21
42.9
0
LINE
8
0
10
73.9
20
61.9
11
88.1
21
61.9
0
LINE
8
0
10
88.1
20
61.9
11
88.1
21
76.1
0
LINE
8
0
10
88.1
20
76.1
11
73.9
21
76.1
0
LINE
8
0
10
73.9
20
76.1
11
73.9
21
61.9
0
LINE
8
0
10
73.9
20
80.9
11
88.1
21
80.9
0
LINE
8
0
10
88.1
20
80.9
11
88.1
21
95.1
0
LINE
8
0
10
88.1
20
95.1
11
73.9
21
95.1
0
LINE
8
0
10
73.9
20
95.1
11
73.9
21
80.9
0
LINE
8
0
10
73.9
20
106.9
11
88.1
21
106.9
0
LINE
8
0
10
88.1
20
106.9
11
88.1
21
121.1
0
LINE
8
0
10
88.1
20
121.1
11
73.9
21
121.1
0
LINE
8
0
10
73.9
20
121.1
11
73.9
21
106.9
0
LINE
8
0
10
92.4
20
30.9
11
106.6
21
30.9
0
LINE
8
0
10
106.6
20
30.9
11
106.6
21
45.1
0
LINE
8
0
10
106.6
20
45.1
11
92.4
21
45.1
0
LINE
8
0
10
92.4
20
45.1
11
92.4
21
30.9
0
LINE
8
0
10
92.4
20
49.9
11
106.6
21
49.9
0
LINE
8
0
10
106.6
20
49.9
11
106.6
21
64.1
0
LINE
8
0
10
106.6
20
64.1
11
92.4
21
64.1
0
LINE
8
0
10
92.4
20
64.1
11
92.4
21
49.9
0
LINE
8
0
10
92.4
20
68.9
11
106.6
21
68.9
0
LINE
8
0
10
106.6
20
68.9
11
106.6
21
83.1
0
LINE
8
0
10
106.6
20
83.1
11
92.4
21
83.1
0
LINE
8
0
10
92.4
20
83.1
11
92.4
21
68.9
0
LINE
8
0
10
92.4
20
87.9
11
106.6
21
87.9
0
LINE
8
0
10
106.6
20
87.9
11
106.6
21
102.1
0
LINE
8
0
10
106.6
20
102.1
11
92.4
21
102.1
0
LINE
8
0
10
92.4
20
102.1
11
92.4
21
87.9
0
LINE
8
0
10
92.4
20
113.9
11
106.6
21
113.9
0
LINE
8
0
10
106.6
20
113.9
11
106.6
21
128.1
0
LINE
8
0
10
106.6
20
128.1
11
92.4
21
128.1
0
LINE
8
0
10
92.4
20
128.1
11
92.4
21
113.9
0
LINE
8
0
10
110.9
20
23.9
11
125.1
21
23.9
0
LINE
8
0
10
125.1
20
23.9
11
125.1
21
38.1
0
LINE
8
0
10
125.1
20
38.1
11
110.9
21
38.1
0
LINE
8
0
10
110.9
20
38.1
11
110.9
21
23.9
0
LINE
8
0
10
110.9
20
42.9
11
125.1
21
42.9
0
LINE
8
0
10
125.1
20
42.9
11
125.1
21
57.1
0
LINE
8
0
10
125.1
20
57.1
11
110.9
21
57.1
0
LINE
8
0
10
110.9
20
57.1
11
110.9
21
42.9
0
LINE
8
0
10
110.9
20
61.9
11
125.1
21
61.9
0
LINE
8
0
10
125.1
20
61.9
11
125.1
21
76.1
0
LINE
8
0
10
125.1
20
76.1
11
110.9
21
76.1
0
LINE
8
0
10
110.9
20
76.1
11
110.9
21
61.9
0
LINE
8
0
10
110.9
20
80.9
11
125.1
21
80.9
0
LINE
8
0
10
125.1
20
80.9
11
125.1
21
95.1
0
LINE
8
0
10
125.1
20
95.1
11
110.9
21
95.1
0
LINE
8
0
10
110.9
20
95.1
11
110.9
21
80.9
0
LINE
8
0
10
110.9
20
106.9
11
125.1
21
106.9
0
LINE
8
0
10
125.1
20
106.9
11
125.1
21
121.1
0
LINE
8
0
10
125.1
20
121.1
11
110.9
21
121.1
0
LINE
8
0
10
110.9
20
121.1
11
110.9
21
106.9
0
LINE
8
0
10
129.4
20
21.9
11
143.6
21
21.9
0
LINE
8
0
10
143.6
20
21.9
11
143.6
21
36.1
0
LINE
8
0
10
143.6
20
36.1
11
129.4
21
36.1
0
LINE
8
0
10
129.4
20
36.1
11
129.4
21
21.9
0
LINE
8
0
10
129.4
20
40.9
11
143.6
21
40.9
0
LINE
8
0
10
143.6
20
40.9
11
143.6
21
55.1
0
LINE
8
0
10
143.6
20
55.1
11
129.4
21
55.1
0
LINE
8
0
10
129.4
20
55.1
11
129.4
21
40.9
0
LINE
8
0
10
129.4
20
59.9
11
143.6
21
59.9
0
LINE
8
0
10
143.6
20
59.9
11
143.6
21
74.1
0
LINE
8
0
10
143.6
20
74.1
11
129.4
21
74.1
0
LINE
8
0
10
129.4
20
74.1
11
129.4
21
59.9
0
LINE
8
0
10
129.4
20
78.9
11
143.6
21
78.9
0
LINE
8
0
10
143.6
20
78.9
11
143.6
21
93.1
0
LINE
8
0
10
143.6
20
93.1
11
129.4
21
93.1
0
LINE
8
0
10
129.4
20
93.1
11
129.4
21
78.9
0
LINE
8
0
10
129.4
20
104.9
11
143.6
21
104.9
0
LINE
8
0
10
143.6
20
104.9
11
143.6
21
119.1
0
LINE
8
0
10
143.6
20
119.1
11
129.4
21
119.1
0
LINE
8
0
10
129.4
20
119.1
11
129.4
21
104.9
0
LINE
8
0
10
36.9
20
-7.1
11
51.1
21
-7.1
0
LINE
8
0
10
51.1
20
-7.1
11
51.1
21
7.1
0
LINE
8
0
10
51.1
20
7.1
11
36.9
21
7.1
0
LINE
8
0
10
36.9
20
7.1
11
36.9
21
-7.1
0
LINE
8
0
10
55.4
20
-7.1
11
69.6
21
-7.1
0
LINE
8
0
10
69.6
20
-7.1
11
69.6
21
7.1
0
LINE
8
0
10
69.6
20
7.1
11
55.4
21
7.1
0
LINE
8
0
10
55.4
20
7.1
11
55.4
21
-7.1
0
LINE
8
0
10
73.9
20
4.9
11
88.1
21
4.9
0
LINE
8
0
10
88.1
20
4.9
11
88.1
21
19.1
0
LINE
8
0
10
88.1
20
19.1
11
73.9
21
19.1
0
LINE
8
0
10
73.9
20
19.1
11
73.9
21
4.9
0
LINE
8
0
10
102.0061851
20
2.9720626
11
115.3498203
21
-1.8846234
0
LINE
8
0
10
115.3498203
20
-1.8846234
11
120.2065063
21
11.4590118
0
LINE
8
0
10
120.2065063
20
11.4590118
11
106.8628711
21
16.3156978
0
LINE
8
0
10
106.8628711
20
16.3156978
11
102.0061851
21
2.9720626
0
LINE
8
0
10
127.1187828
20
-1.4559659
11
140.462418
21
-6.3126519
0
LINE
8
0
10
140.462418
20
-6.3126519
11
145.319104
21
7.0309833
0
LINE
8
0
10
145.319104
20
7.0309833
11
131.9754688
21
11.8876693
0
LINE
8
0
10
131.9754688
20
11.8876693
11
127.1187828
21
-1.4559659
0
ENDSEC
0
EOF