0
SECTION
2
HEADER
9
$INSUNITS
70
4
0
ENDSEC
0
SECTION
2
TABLES
0
TABLE
2
LTYPE
0
LTYPE
72
65
70
64
2
CONTINUOUS
3
______
73
0
40
0
0
ENDTAB
0
TABLE
2
LAYER
0
ENDTAB
0
ENDSEC
0
SECTION
2
ENTITIES
0
LINE
8
0
10
-13.2
20
-15.2
11
-12.4457146
21
-15.2
0
LINE
8
0
10
-15.2
20
-13.2
11
-15.2
21
97.8
0
LINE
8
0
10
4.2
20
99.8
11
-13.2
21
99.8
0
LINE
8
0
10
21.6
20
101.8
11
4.2
21
101.8
0
LINE
8
0
10
4.2
20
101.8
11
4.2
21
99.8
0
LINE
8
0
10
39.6531719
20
-6.2
11
41
21
-6.2
0
LINE
8
0
10
54
20
103.8
11
54
21
106.8
0
LINE
8
0
10
52
20
108.8
11
25.6
21
108.8
0
LINE
8
0
10
23.6
20
106.8
11
23.6
21
103.8
0
LINE
8
0
10
43
20
-23.2429435
11
43
21
-8.2
0
LINE
8
0
10
73.4
20
91.8
11
73.4
21
99.8
0
LINE
8
0
10
71.4
20
101.8
11
56
21
101.8
0
LINE
8
0
10
75.4
20
89.8
11
173.4
21
89.8
0
LINE
8
0
10
43
20
-32.6
11
60.4
21
-32.6
0
LINE
8
0
10
43
20
-31.8793524
11
43
21
-32.6
0
LINE
8
0
10
64.4
20
-44.6
11
110.2
21
-44.6
0
LINE
8
0
10
62.4
20
-34.6
11
62.4
21
-42.6
0
LINE
8
0
10
112.2
20
-42.6
11
112.2
21
-32.2
0
LINE
8
0
10
19.0884178
20
-40.5824566
11
43
21
-31.8793524
0
LINE
8
0
10
43
20
-23.2429435
11
37.7737866
21
-8.8840402
0
LINE
8
0
10
16.4439282
20
-39.1643898
11
16.5249923
21
-39.3871115
0
LINE
8
0
10
-4.9408914
20
-44.8194721
11
13.8805028
21
-37.9690448
0
LINE
8
0
10
-12.4457146
20
-15.2
11
-15.3383036
21
-16.2528163
0
LINE
8
0
10
-16.5336487
20
-18.8162418
11
-7.5043169
21
-43.624127
0
LINE
8
0
10
114.2
20
-30.2
11
173.4
21
-30.2
0
LINE
8
0
10
156
20
2.2
11
156
21
11.6
0
LINE
8
0
10
175.4
20
-28.2
11
175.4
21
-1.8
0
LINE
8
0
10
173.4
20
0.2
11
158
21
0.2
0
LINE
8
0
10
158
20
13.6
11
173.4
21
13.6
0
LINE
8
0
10
175.4
20
15.6
11
175.4
21
87.8
0
ARC
8
0
10
-14.6542634
20
-18.1322015
40
2
50
109.9999981
51
199.9999981
0
ARC
8
0
10
-5.6249317
20
-42.9400868
40
2
50
199.9999981
51
289.9999981
0
ARC
8
0
10
14.564543
20
-39.8484301
40
2
50
19.9999981
51
109.9999981
0
ARC
8
0
10
18.4043775
20
-38.7030713
40
2
50
199.9999981
51
289.9999981
0
ARC
8
0
10
60.4
20
-34.6
40
2
50
0
51
90
0
ARC
8
0
10
64.4
20
-42.6
40
2
50
180
51
270
0
ARC
8
0
10
110.2
20
-42.6
40
2
50
270
51
0
0
ARC
8
0
10
114.2
20
-32.2
40
2
50
90
51
180
0
ARC
8
0
10
173.4
20
-28.2
40
2
50
270
51
0
0
ARC
8
0
10
173.4
20
-1.8
40
2
50
0
51
90
0
ARC
8
0
10
158
20
2.2
40
2
50
180
51
270
0
ARC
8
0
10
158
20
11.6
40
2
50
90
51
180
0
ARC
8
0
10
173.4
20
15.6
40
2
50
270
51
0
0
ARC
8
0
10
173.4
20
87.8
40
2
50
0
51
90
0
ARC
8
0
10
75.4
20
91.8
40
2
50
180
51
270
0
ARC
8
0
10
71.4
20
99.8
40
2
50
0
51
90
0
ARC
8
0
10
56
20
103.8
40
2
50
180
51
270
0
ARC
8
0
10
52
20
106.8
40
2
50
0
51
90
0
ARC
8
0
10
25.6
20
106.8
40
2
50
90
51
180
0
ARC
8
0
10
21.6
20
103.8
40
2
50
270
51
0
0
ARC
8
0
10
-13.2
20
97.8
40
2
50
90
51
180
0
ARC
8
0
10
-13.2
20
-13.2
40
2
50
180
51
270
0
ARC
8
0
10
41
20
-8.2
40
2
50
0
51
90
0
ARC
8
0
10
39.6531719
20
-8.2
40
2
50
90
51
199.9999981
0
LINE
8
0
10
-7.1
20
-7.1
11
7.1
21
-7.1
0
LINE
8
0
10
7.1
20
-7.1
11
7.1
21
7.1
0
LINE
8
0
10
7.1
20
7.1
11
-7.1
21
7.1
0
LINE
8
0
10
-7.1
20
7.1
11
-7.1
21
-7.1
0
LINE
8
0
10
-7.1
20
12.3
11
7.1
21
12.3
0
LINE
8
0
10
7.1
20
12.3
11
7.1
21
26.5
0
LINE
8
0
10
7.1
20
26.5
11
-7.1
21
26.5
0
LINE
8
0
10
-7.1
20
26.5
11
-7.1
21
12.3
0
LINE
8
0
10
-7.1
20
31.7
11
7.1
21
31.7
0
LINE
8
0
10
7.1
20
31.7
11
7.1
21
45.9
0
LINE
8
0
10
7.1
20
45.9
11
-7.1
21
45.9
0
LINE
8
0
10
-7.1
20
45.9
11
-7.1
21
31.7
0
LINE
8
0
10
-7.1
20
51.1
11
7.1
21
51.1
0
LINE
8
0
10
7.1
20
51.1
11
7.1
21
65.3
0
LINE
8
0
10
7.1
20
65.3
11
-7.1
21
65.3
0
LINE
8
0
10
-7.1
20
65.3
11
-7.1
21
51.1
0
LINE
8
0
10
-7.1
20
77.5
11
7.1
21
77.5
0
LINE
8
0
10
7.1
20
77.5
11
7.1
21
91.7
0
LINE
8
0
10
7.1
20
91.7
11
-7.1
21
91.7
0
LINE
8
0
10
-7.1
20
91.7
11
-7.1
21
77.5
0
LINE
8
0
10
12.3
20
-5.1
11
26.5
21
-5.1
0
LINE
8
0
10
26.5
20
-5.1
11
26.5
21
9.1
0
LINE
8
0
10
26.5
20
9.1
11
12.3
21
9.1
0
LINE
8
0
10
12.3
20
9.1
11
12.3
21
-5.1
0
LINE
8
0
10
12.3
20
14.3
11
26.5
21
14.3
0
LINE
8
0
10
26.5
20
14.3
11
26.5
21
28.5
0
LINE
8
0
10
26.5
20
28.5
11
12.3
21
28.5
0
LINE
8
0
10
12.3
20
28.5
11
12.3
21
14.3
0
LINE
8
0
10
12.3
20
33.7
11
26.5
21
33.7
0
LINE
8
0
10
26.5
20
33.7
11
26.5
21
47.9
0
LINE
8
0
10
26.5
20
47.9
11
12.3
21
47.9
0
LINE
8
0
10
12.3
20
47.9
11
12.3
21
33.7
0
LINE
8
0
10
12.3
20
53.1
11
26.5
21
53.1
0
LINE
8
0
10
26.5
20
53.1
11
26.5
21
67.3
0
LINE
8
0
10
26.5
20
67.3
11
12.3
21
67.3
0
LINE
8
0
10
12.3
20
67.3
11
12.3
21
53.1
0
LINE
8
0
10
12.3
20
79.5
11
26.5
21
79.5
0
LINE
8
0
10
26.5
20
79.5
11
26.5
21
93.7
0
LINE
8
0
10
26.5
20
93.7
11
12.3
21
93.7
0
LINE
8
0
10
12.3
20
93.7
11
12.3
21
79.5
0
LINE
8
0
10
31.7
20
1.9
11
45.9
21
1.9
0
LINE
8
0
10
45.9
20
1.9
11
45.9
21
16.1
0
LINE
8
0
10
45.9
20
16.1
11
31.7
21
16.1
0
LINE
8
0
10
31.7
20
16.1
11
31.7
21
1.9
0
LINE
8
0
10
31.7
20
21.3
11
45.9
21
21.3
0
LINE
8
0
10
45.9
20
21.3
11
45.9
21
35.5
0
LINE
8
0
10
45.9
20
35.5
11
31.7
21
35.5
0
LINE
8
0
10
31.7
20
35.5
11
31.7
21
21.3
0
LINE
8
0
10
31.7
20
40.7
11
45.9
21
40.7
0
LINE
8
0
10
45.9
20
40.7
11
45.9
21
54.9
0
LINE
8
0
10
45.9
20
54.9
11
31.7
21
54.9
0
LINE
8
0
10
31.7
20
54.9
11
31.7
21
40.7
0
LINE
8
0
10
31.7
20
60.1
11
45.9
21
60.1
0
LINE
8
0
10
45.9
20
60.1
11
45.9
21
74.3
0
LINE
8
0
10
45.9
20
74.3
11
31.7
21
74.3
0
LINE
8
0
10
31.7
20
74.3
11
31.7
21
60.1
0
LINE
8
0
10
31.7
20
86.5
11
45.9
21
86.5
0
LINE
8
0
10
45.9
20
86.5
11
45.9
21
100.7
0
LINE
8
0
10
45.9
20
100.7
11
31.7
21
100.7
0
LINE
8
0
10
31.7
20
100.7
11
31.7
21
86.5
0
LINE
8
0
10
51.1
20
-5.1
11
65.3
21
-5.1
0
LINE
8
0
10
65.3
20
-5.1
11
65.3
21
9.1
0
LINE
8
0
10
65.3
20
9.1
11
51.1
21
9.1
0
LINE
8
0
10
51.1
20
9.1
11
51.1
21
-5.1
0
LINE
8
0
10
51.1
20
14.3
11
65.3
21
14.3
0
LINE
8
0
10
65.3
20
14.3
11
65.3
21
28.5
0
LINE
8
0
10
65.3
20
28.5
11
51.1
21
28.5
0
LINE
8
0
10
51.1
20
28.5
11
51.1
21
14.3
0
LINE
8
0
10
51.1
20
33.7
11
65.3
21
33.7
0
LINE
8
0
10
65.3
20
33.7
11
65.3
21
47.9
0
LINE
8
0
10
65.3
20
47.9
11
51.1
21
47.9
0
LINE
8
0
10
51.1
20
47.9
11
51.1
21
33.7
0
LINE
8
0
10
51.1
20
53.1
11
65.3
21
53.1
0
LINE
8
0
10
65.3
20
53.1
11
65.3
21
67.3
0
LINE
8
0
10
65.3
20
67.3
11
51.1
21
67.3
0
LINE
8
0
10
51.1
20
67.3
11
51.1
21
53.1
0
LINE
8
0
10
51.1
20
79.5
11
65.3
21
79.5
0
LINE
8
0
10
65.3
20
79.5
11
65.3
21
93.7
0
LINE
8
0
10
65.3
20
93.7
11
51.1
21
93.7
0
LINE
8
0
10
51.1
20
93.7
11
51.1
21
79.5
0
LINE
8
0
10
70.5
20
-17.1
11
84.7
21
-17.1
0
LINE
8
0
10
84.7
20
-17.1
11
84.7
21
-2.9
0
LINE
8
0
10
84.7
20
-2.9
11
70.5
21
-2.9
0
LINE
8
0
10
70.5
20
-2.9
11
70.5
21
-17.1
0
LINE
8
0
10
70.5
20
2.3
11
84.7
21
2.3
0
LINE
8
0
10
84.7
20
2.3
11
84.7
21
16.5
0
LINE
8
0
10
84.7
20
16.5
11
70.5
21
16.5
0
LINE
8
0
10
70.5
20
16.5
11
70.5
21
2.3
0
LINE
8
0
10
70.5
20
21.7
11
84.7
21
21.7
0
LINE
8
0
10
84.7
20
21.7
11
84.7
21
35.9
0
LINE
8
0
10
84.7
20
35.9
11
70.5
21
35.9
0
LINE
8
0
10
70.5
20
35.9
11
70.5
21
21.7
0
LINE
8
0
10
70.5
20
41.1
11
84.7
21
41.1
0
LINE
8
0
10
84.7
20
41.1
11
84.7
21
55.3
0
LINE
8
0
10
84.7
20
55.3
11
70.5
21
55.3
0
LINE
8
0
10
70.5
20
55.3
11
70.5
21
41.1
0
LINE
8
0
10
70.5
20
67.5
11
84.7
21
67.5
0
LINE
8
0
10
84.7
20
67.5
11
84.7
21
81.7
0
LINE
8
0
10
84.7
20
81.7
11
70.5
21
81.7
0
LINE
8
0
10
70.5
20
81.7
11
70.5
21
67.5
0
LINE
8
0
10
89.9
20
-17.1
11
104.1
21
-17.1
0
LINE
8
0
10
104.1
20
-17.1
11
104.1
21
-2.9
0
LINE
8
0
10
104.1
20
-2.9
11
89.9
21
-2.9
0
LINE
8
0
10
89.9
20
-2.9
11
89.9
21
-17.1
0
LINE
8
0
10
89.9
20
2.3
11
104.1
21
2.3
0
LINE
8
0
10
104.1
20
2.3
11
104.1
21
16.5
0
LINE
8
0
10
104.1
20
16.5
11
89.9
21
16.5
0
LINE
8
0
10
89.9
20
16.5
11
89.9
21
2.3
0
LINE
8
0
10
89.9
20
21.7
11
104.1
21
21.7
0
LINE
8
0
10
104.1
20
21.7
11
104.1
21
35.9
0
LINE
8
0
10
104.1
20
35.9
11
89.9
21
35.9
0
LINE
8
0
10
89.9
20
35.9
11
89.9
21
21.7
0
LINE
8
0
10
89.9
20
41.1
11
104.1
21
41.1
0
LINE
8
0
10
104.1
20
41.1
11
104.1
21
55.3
0
LINE
8
0
10
104.1
20
55.3
11
89.9
21
55.3
0
LINE
8
0
10
89.9
20
55.3
11
89.9
21
41.1
0
LINE
8
0
10
89.9
20
67.5
11
104.1
21
67.5
0
LINE
8
0
10
104.1
20
67.5
11
104.1
21
81.7
0
LINE
8
0
10
104.1
20
81.7
11
89.9
21
81.7
0
LINE
8
0
10
89.9
20
81.7
11
89.9
21
67.5
0
LINE
8
0
10
109.3
20
2.3
11
123.5
21
2.3
0
LINE
8
0
10
123.5
20
2.3
11
123.5
21
16.5
0
LINE
8
0
10
123.5
20
16.5
11
109.3
21
16.5
0
LINE
8
0
10
109.3
20
16.5
11
109.3
21
2.3
0
LINE
8
0
10
109.3
20
21.7
11
123.5
21
21.7
0
LINE
8
0
10
123.5
20
21.7
11
123.5
21
35.9
0
LINE
8
0
10
123.5
20
35.9
11
109.3
21
35.9
0
LINE
8
0
10
109.3
20
35.9
11
109.3
21
21.7
0
LINE
8
0
10
109.3
20
41.1
11
123.5
21
41.1
0
LINE
8
0
10
123.5
20
41.1
11
123.5
21
55.3
0
LINE
8
0
10
123.5
20
55.3
11
109.3
21
55.3
0
LINE
8
0
10
109.3
20
55.3
11
109.3
21
41.1
0
LINE
8
0
10
109.3
20
67.5
11
123.5
21
67.5
0
LINE
8
0
10
123.5
20
67.5
11
123.5
21
81.7
0
LINE
8
0
10
123.5
20
81.7
11
109.3
21
81.7
0
LINE
8
0
10
109.3
20
81.7
11
109.3
21
67.5
0
LINE
8
0
10
128.7
20
21.7
11
142.9
21
21.7
0
LINE
8
0
10
142.9
20
21.7
11
142.9
21
35.9
0
LINE
8
0
10
142.9
20
35.9
11
128.7
21
35.9
0
LINE
8
0
10
128.7
20
35.9
11
128.7
21
21.7
0
LINE
8
0
10
128.7
20
41.1
11
142.9
21
41.1
0
LINE
8
0
10
142.9
20
41.1
11
142.9
21
55.3
0
LINE
8
0
10
142.9
20
55.3
11
128.7
21
55.3
0
LINE
8
0
10
128.7
20
55.3
11
128.7
21
41.1
0
LINE
8
0
10
128.7
20
67.5
11
142.9
21
67.5
0
LINE
8
0
10
142.9
20
67.5
11
142.9
21
81.7
0
LINE
8
0
10
142.9
20
81.7
11
128.7
21
81.7
0
LINE
8
0
10
128.7
20
81.7
11
128.7
21
67.5
0
LINE
8
0
10
51.1
20
-24.5
11
65.3
21
-24.5
0
LINE
8
0
10
65.3
20
-24.5
11
65.3
21
-10.3
0
LINE
8
0
10
65.3
20
-10.3
11
51.1
21
-10.3
0
LINE
8
0
10
51.1
20
-10.3
11
51.1
21
-24.5
0
LINE
8
0
10
70.5
20
-36.5
11
84.7
21
-36.5
0
LINE
8
0
10
84.7
20
-36.5
11
84.7
21
-22.3
0
LINE
8
0
10
84.7
20
-22.3
11
70.5
21
-22.3
0
LINE
8
0
10
70.5
20
-22.3
11
70.5
21
-36.5
0
LINE
8
0
10
89.9
20
-36.5
11
104.1
21
-36.5
0
LINE
8
0
10
104.1
20
-36.5
11
104.1
21
-22.3
0
LINE
8
0
10
104.1
20
-22.3
11
89.9
21
-22.3
0
LINE
8
0
10
89.9
20
-22.3
11
89.9
21
-36.5
0
LINE
8
0
10
22.0501797
20
-30.8846234
11
35.3938149
21
-26.0279374
0
LINE
8
0
10
35.3938149
20
-26.0279374
11
30.5371289
21
-12.6843022
0
LINE
8
0
10
30.5371289
20
-12.6843022
11
17.1934937
21
-17.5409882
0
LINE
8
0
10
17.1934937
20
-17.5409882
11
22.0501797
21
-30.8846234
0
LINE
8
0
10
-1.9791295
20
-35.1216389
11
11.3645057
21
-30.2649529
0
LINE
8
0
10
11.3645057
20
-30.2649529
11
6.5078197
21
-16.9213177
0
LINE
8
0
10
6.5078197
20
-16.9213177
11
-6.8358155
21
-21.7780037
0
LINE
8
0
10
-6.8358155
20
-21.7780037
11
-1.9791295
21
-35.1216389
0
LINE
8
0
10
133.7
20
-22.1
11
147.9
21
-22.1
0
LINE
8
0
10
147.9
20
-22.1
11
147.9
21
-7.9
0
LINE
8
0
10
147.9
20
-7.9
11
133.7
21
-7.9
0
LINE
8
0
10
133.7
20
-7.9
11
133.7
21
-22.1
0
LINE
8
0
10
133.7
20
-2.7
11
147.9
21
-2.7
0
LINE
8
0
10
147.9
20
-2.7
11
147.9
21
11.5
0
LINE
8
0
10
147.9
20
11.5
11
133.7
21
11.5
0
LINE
8
0
10
133.7
20
11.5
11
133.7
21
-2.7
0
LINE
8
0
10
153.1
20
-22.1
11
167.3
21
-22.1
0
LINE
8
0
10
167.3
20
-22.1
11
167.3
21
-7.9
0
LINE
8
0
10
167.3
20
-7.9
11
153.1
21
-7.9
0
LINE
8
0
10
153.1
20
-7.9
11
153.1
21
-22.1
0
LINE
8
0
10
153.1
20
21.7
11
167.3
21
21.7
0
LINE
8
0
10
167.3
20
21.7
11
167.3
21
35.9
0
LINE
8
0
10
167.3
20
35.9
11
153.1
21
35.9
0
LINE
8
0
10
153.1
20
35.9
11
153.1
21
21.7
0
LINE
8
0
10
153.1
20
41.1
11
167.3
21
41.1
0
LINE
8
0
10
167.3
20
41.1
11
167.3
21
55.3
0
LINE
8
0
10
167.3
20
55.3
11
153.1
21
55.3
0
LINE
8
0
10
153.1
20
55.3
11
153.1
21
41.1
0
LINE
8
0
10
153.1
20
67.5
11
167.3
21
67.5
0
LINE
8
0
10
167.3
20
67.5
11
167.3
21
81.7
0
LINE
8
0
10
167.3
20
81.7
11
153.1
21
81.7
0
LINE
8
0
10
153.1
20
81.7
11
153.1
21
67.5
0
LINE
8
0
10
114.3
20
-22.1
11
128.5
21
-22.1
0
LINE
8
0
10
128.5
20
-22.1
11
128.5
21
-7.9
0
LINE
8
0
10
128.5
20
-7.9
11
114.3
21
-7.9
0
LINE
8
0
10
114.3
20
-7.9
11
114.3
21
-22.1
0
ENDSEC
0
EOF